<svg width="233" height="233" viewBox="0 0 233 233" fill="none" xmlns="http://www.w3.org/2000/svg">
<rect width="233" height="233" rx="42" fill="black"/>
<path d="M29 111.784C29 98.212 31.436 85.945 36.308 74.983C41.18 63.847 47.705 54.364 55.883 46.534C64.061 38.704 73.544 32.701 84.332 28.525C95.12 24.175 106.43 22 118.262 22C128.18 22 137.402 23.305 145.928 25.915C154.454 28.351 162.11 31.918 168.896 36.616C175.682 41.314 181.511 47.143 186.383 54.103C191.429 61.063 195.344 68.98 198.128 77.854L178.553 80.725C175.943 74.113 172.637 68.371 168.635 63.499C164.633 58.453 160.022 54.277 154.802 50.971C149.756 47.665 144.101 45.229 137.837 43.663C131.573 41.923 124.961 41.053 118.001 41.053C108.257 41.053 99.209 43.054 90.857 47.056C82.505 50.884 75.284 56.278 69.194 63.238C63.104 70.024 58.319 78.028 54.839 87.25C51.359 96.472 49.619 106.39 49.619 117.004C49.619 127.966 51.446 138.058 55.1 147.28C58.928 156.502 63.974 164.419 70.238 171.031C76.502 177.643 83.723 182.776 91.901 186.43C100.079 190.084 108.779 191.911 118.001 191.911C127.919 191.911 136.88 190.432 144.884 187.474C152.888 184.342 159.761 179.992 165.503 174.424C171.419 168.856 176.03 162.244 179.336 154.588C182.642 146.932 184.556 138.493 185.078 129.271H121.394V110.479H205.958V121.702C205.784 135.448 203.435 147.889 198.911 159.025C194.561 169.987 188.384 179.383 180.38 187.213C172.55 194.869 163.241 200.785 152.453 204.961C141.665 209.137 129.92 211.225 117.218 211.225C104.69 211.225 93.032 208.963 82.244 204.439C71.63 199.915 62.321 193.651 54.317 185.647C46.487 177.643 40.31 168.16 35.786 157.198C31.262 146.062 29 134.143 29 121.441V111.784Z" fill="white"/>
</svg>
